<svg width="28" height="11" viewBox="0 0 28 11" fill="none" xmlns="http://www.w3.org/2000/svg">
<path d="M0.365382 4.69934C0.350105 4.88824 0.405894 5.06938 0.512879 5.21311C0.605398 5.33751 0.736226 5.43398 0.89248 5.48343C2.62566 6.03214 3.95126 6.65459 4.86941 7.35078L4.86956 7.35093C5.7238 8.01195 6.22853 8.43357 6.38358 8.61528C6.41294 8.64978 6.44531 8.68139 6.48014 8.70994L6.48172 8.71208C6.48719 8.71908 6.4929 8.7266 6.4989 8.73469C6.61483 8.8905 6.83761 9.25502 7.16728 9.82846C7.18246 9.85487 7.19903 9.88 7.21678 9.90384C7.44304 10.208 7.86623 10.3015 8.2029 10.1079C8.56604 9.89908 8.69116 9.43548 8.48237 9.07231C8.12877 8.45731 7.86518 8.03307 7.69167 7.79986C7.65684 7.75303 7.62557 7.71386 7.59801 7.6824C7.55856 7.63743 7.51787 7.59721 7.47603 7.56185L7.4776 7.56399C7.21951 7.28896 6.65763 6.81646 5.79196 6.14669L5.78616 6.14221C5.74437 6.11052 5.69692 6.0803 5.65375 6.04884C9.07738 6.17774 16.155 6.1284 26.8948 5.90044C27.3136 5.89153 27.6459 5.54482 27.637 5.12601C27.6336 4.96239 27.5785 4.81196 27.4877 4.68993C27.3462 4.49965 27.1178 4.37843 26.8626 4.38381C14.3055 4.65027 6.82577 4.67817 4.42144 4.46715C5.62064 3.80394 6.61274 2.8642 7.39052 1.63799C7.56366 1.365 7.54067 1.02352 7.35863 0.778759C7.3048 0.70637 7.23708 0.642454 7.15636 0.591245C6.8026 0.366841 6.33396 0.471796 6.10961 0.825489C4.9732 2.61707 3.27391 3.67861 1.01169 4.00981C0.661982 4.06102 0.394025 4.34696 0.365616 4.6992L0.365382 4.69934Z" fill="black"/>
</svg>
