<svg width="28" height="28" viewBox="0 0 28 28" fill="none" xmlns="http://www.w3.org/2000/svg">
<path d="M0.316615 13.6994C0.301338 13.8883 0.357126 14.0694 0.464112 14.2131C0.556631 14.3375 0.687459 14.434 0.843713 14.4835C2.57689 15.0322 3.9025 15.6546 4.82065 16.3508L4.82079 16.3509C5.67504 17.012 6.17976 17.4336 6.33481 17.6153C6.36418 17.6498 6.39654 17.6814 6.43138 17.71L6.43295 17.7121C6.43842 17.7191 6.44413 17.7266 6.45013 17.7347C6.56606 17.8905 6.78885 18.255 7.11851 18.8285C7.1337 18.8549 7.15026 18.88 7.16801 18.9039C7.39427 19.208 7.81746 19.3015 8.15414 19.1079C8.51727 18.8991 8.64239 18.4355 8.43361 18.0723C8.08 17.4573 7.81642 17.0331 7.64291 16.7999C7.60807 16.753 7.5768 16.7139 7.54924 16.6824C7.50979 16.6374 7.4691 16.5972 7.42727 16.5619L7.42884 16.564C7.17074 16.289 6.60886 15.8165 5.7432 15.1467L5.73739 15.1422C5.6956 15.1105 5.64815 15.0803 5.60498 15.0489C9.02861 15.1778 16.1062 15.1284 26.8461 14.9005C27.2648 14.8915 27.5972 14.5448 27.5882 14.126C27.5848 13.9624 27.5297 13.812 27.4389 13.6899C27.2974 13.4997 27.069 13.3784 26.8139 13.3838C14.2567 13.6503 6.77701 13.6782 4.37267 13.4672C5.57187 12.804 6.56398 11.8642 7.34175 10.638C7.5149 10.365 7.4919 10.0235 7.30986 9.77877C7.25604 9.70639 7.18831 9.64247 7.1076 9.59126C6.75384 9.36686 6.2852 9.47181 6.06085 9.8255C4.92443 11.6171 3.22515 12.6786 0.962923 13.0098C0.613215 13.061 0.345258 13.347 0.316849 13.6992L0.316615 13.6994Z" fill="#94999F"/>
</svg>
