<svg width="17" height="22" viewBox="0 0 17 22" fill="none" xmlns="http://www.w3.org/2000/svg">
<path d="M16.3333 5.30582C16.3333 5.1246 16.4826 4.97758 16.6667 4.97758C16.8507 4.97758 17 5.1246 17 5.30582V5.37421C17 5.55543 16.8507 5.70245 16.6667 5.70245C16.4826 5.70245 16.3333 5.55543 16.3333 5.37421V5.30582ZM14.8012 19.1177V19.1245C14.8012 19.6665 14.5764 20.1589 14.2144 20.5153C13.8524 20.8718 13.3524 21.0932 12.8021 21.0932H1.99847C1.44899 21.0932 0.949862 20.8718 0.587883 20.5153C0.225033 20.1571 0.000219838 19.6656 0.000219838 19.1245V13.8214C0.000219838 13.6401 0.149524 13.4931 0.333551 13.4931C0.517578 13.4931 0.666882 13.6401 0.666882 13.8214V19.1245C0.666882 19.4853 0.817056 19.8135 1.05751 20.0511C1.29882 20.2879 1.63215 20.4358 1.99847 20.4358H12.8021C13.1684 20.4358 13.5017 20.2879 13.7431 20.0503C13.9844 19.8126 14.1346 19.4844 14.1346 19.1237V19.1168H4.19703C3.64842 19.1168 3.14842 18.8946 2.78557 18.5381C2.42272 18.1834 2.19791 17.6902 2.19791 17.1482V2.72599H1.99826C1.63889 2.72599 1.31164 2.86789 1.07292 3.09527L1.05816 3.11065C0.816846 3.34829 0.666662 3.67653 0.666662 4.03726V11.764C0.666662 11.9452 0.517358 12.0922 0.333331 12.0922C0.149305 12.0922 0 11.9452 0 11.764V4.03726C0 3.4953 0.225702 3.00293 0.586811 2.64648L0.606776 2.62767C0.967014 2.28232 1.4592 2.06863 1.99827 2.06863H2.19791V2.06179C2.19791 1.51984 2.42362 1.02747 2.78472 0.671015L2.80469 0.65221C3.16493 0.306858 3.65711 0.0931702 4.19618 0.0931702H14.9998C15.5484 0.0931702 16.0484 0.315429 16.4104 0.671868C16.7732 1.02661 16.9981 1.51984 16.9981 2.06179V4.30991C16.9981 4.49113 16.8488 4.63816 16.6647 4.63816C16.4807 4.63816 16.3314 4.49113 16.3314 4.30991V2.06179C16.3314 1.70107 16.1804 1.37282 15.9399 1.13519C15.6995 0.896699 15.367 0.749663 14.9998 0.749663H4.19616C3.83679 0.749663 3.50954 0.89156 3.27082 1.11894L3.25606 1.13433C3.01475 1.37196 2.86456 1.7002 2.86456 2.06093V17.1468C2.86456 17.5075 3.0156 17.8357 3.25606 18.0734C3.4965 18.3119 3.82983 18.4589 4.19702 18.4589H15.0006C15.36 18.4589 15.6864 18.317 15.926 18.0896L15.9408 18.0742C16.1821 17.8366 16.3323 17.5083 16.3323 17.1476V6.36674C16.3323 6.18552 16.4816 6.03849 16.6656 6.03849C16.8496 6.03849 16.9989 6.18552 16.9989 6.36674V17.1476C16.9989 17.6896 16.7732 18.1819 16.4121 18.5384L16.3921 18.5572C16.0319 18.9026 15.5397 19.1162 15.0006 19.1162H14.801L14.8012 19.1177ZM0.666882 12.8281C0.666882 13.0094 0.517578 13.1564 0.333551 13.1564C0.149524 13.1564 0.000219838 13.0094 0.000219838 12.8281V12.7597C0.000219838 12.5785 0.149524 12.4315 0.333551 12.4315C0.517578 12.4315 0.666882 12.5785 0.666882 12.7597V12.8281ZM5.39778 7.15731C5.21375 7.15731 5.06445 7.01029 5.06445 6.82907C5.06445 6.64785 5.21375 6.50082 5.39778 6.50082H13.8012C13.9853 6.50082 14.1346 6.64785 14.1346 6.82907C14.1346 7.01029 13.9853 7.15731 13.8012 7.15731H5.39778ZM5.39778 4.38017C5.21375 4.38017 5.06445 4.23314 5.06445 4.05192C5.06445 3.8707 5.21375 3.72368 5.39778 3.72368H9.63738C9.82141 3.72368 9.97071 3.8707 9.97071 4.05192C9.97071 4.23314 9.82141 4.38017 9.63738 4.38017H5.39778ZM5.39778 15.4893C5.21375 15.4893 5.06445 15.3423 5.06445 15.1611C5.06445 14.9798 5.21375 14.8328 5.39778 14.8328H13.8012C13.9853 14.8328 14.1346 14.9798 14.1346 15.1611C14.1346 15.3423 13.9853 15.4893 13.8012 15.4893H5.39778ZM5.39778 12.7122C5.21375 12.7122 5.06445 12.5651 5.06445 12.3839C5.06445 12.2027 5.21375 12.0557 5.39778 12.0557H13.8012C13.9853 12.0557 14.1346 12.2027 14.1346 12.3839C14.1346 12.5651 13.9853 12.7122 13.8012 12.7122H5.39778ZM5.39778 9.93501C5.21375 9.93501 5.06445 9.78798 5.06445 9.60676C5.06445 9.42554 5.21375 9.27851 5.39778 9.27851H13.8012C13.9853 9.27851 14.1346 9.42554 14.1346 9.60676C14.1346 9.78798 13.9853 9.93501 13.8012 9.93501H5.39778Z" fill="#1741BE"/>
</svg>
