<svg width="28" height="11" viewBox="0 0 28 11" fill="none" xmlns="http://www.w3.org/2000/svg">
<path d="M27.4886 6.20323C27.5038 6.01433 27.448 5.8332 27.3411 5.68946C27.2485 5.56506 27.1177 5.46859 26.9615 5.41914C25.2283 4.87043 23.9027 4.24798 22.9845 3.55179L22.9844 3.55165C22.1301 2.89063 21.6254 2.469 21.4704 2.28729C21.441 2.25279 21.4086 2.22119 21.3738 2.19263L21.3722 2.19049C21.3668 2.18349 21.361 2.17597 21.355 2.16788C21.2391 2.01207 21.0163 1.64755 20.6867 1.07411C20.6715 1.0477 20.6549 1.02257 20.6372 0.998728C20.4109 0.694607 19.9877 0.60104 19.651 0.794651C19.2879 1.00349 19.1628 1.46709 19.3716 1.83027C19.7252 2.44526 19.9888 2.8695 20.1623 3.10271C20.1971 3.14954 20.2284 3.18871 20.2559 3.22017C20.2954 3.26514 20.3361 3.30536 20.3779 3.34072L20.3763 3.33858C20.6344 3.61362 21.1963 4.08611 22.062 4.75589L22.0678 4.76036C22.1096 4.79206 22.157 4.82228 22.2002 4.85374C18.7766 4.72483 11.6989 4.77418 0.959106 5.00213C0.54034 5.01104 0.208003 5.35775 0.216948 5.77656C0.220376 5.94018 0.275444 6.09062 0.366237 6.21265C0.507775 6.40292 0.736176 6.52414 0.991322 6.51876C13.5485 6.25231 21.0282 6.22441 23.4325 6.43543C22.2333 7.09863 21.2412 8.03838 20.4634 9.26458C20.2903 9.53758 20.3133 9.87905 20.4953 10.1238C20.5491 10.1962 20.6169 10.2601 20.6976 10.3113C21.0513 10.5357 21.52 10.4308 21.7443 10.0771C22.8807 8.2855 24.58 7.22396 26.8423 6.89276C27.192 6.84155 27.4599 6.55561 27.4883 6.20338L27.4886 6.20323Z" fill="black"/>
</svg>
