<svg width="20" height="20" viewBox="0 0 20 20" fill="none" xmlns="http://www.w3.org/2000/svg">
<path d="M8.09048 16.181C9.83693 16.181 11.4676 15.6128 12.7933 14.666L17.7801 19.6528C18.0116 19.8843 18.3167 20 18.6323 20C19.3161 20 19.8106 19.474 19.8106 18.8006C19.8106 18.485 19.7054 18.1904 19.474 17.959L14.5187 12.9932C15.5602 11.6255 16.181 9.93161 16.181 8.09048C16.181 3.64019 12.5408 0 8.09048 0C3.62967 0 0 3.64019 0 8.09048C0 12.5408 3.62967 16.181 8.09048 16.181ZM8.09048 14.4345C4.6081 14.4345 1.74645 11.5623 1.74645 8.09048C1.74645 4.61862 4.6081 1.74645 8.09048 1.74645C11.5623 1.74645 14.4345 4.61862 14.4345 8.09048C14.4345 11.5623 11.5623 14.4345 8.09048 14.4345Z" fill="#020202"/>
</svg>
