<svg width="134" height="87" viewBox="0 0 134 87" fill="none" xmlns="http://www.w3.org/2000/svg">
<path d="M23.625 19.288C25.4113 19.2859 27.1648 19.7126 28.6987 20.5227C30.1612 21.4587 30.3188 23.3507 30.3188 24.685V62.305C30.3578 63.1262 30.2243 63.9467 29.925 64.7247C29.4654 65.6503 28.6749 66.4166 27.675 66.9055C26.4182 67.4594 25.0287 67.7361 23.625 67.712V68.4389H35.7412V24.6253C35.7247 23.8151 35.8733 23.0089 36.18 22.2454C36.6417 21.321 37.4317 20.5553 38.43 20.0647C39.7045 19.479 41.1228 19.1814 42.5588 19.1983V18.4714H23.625V19.288Z" fill="#2C2C2C"/>
<path d="M62.9999 57.3859L61.8749 60.3135C59.6249 66.2184 55.0236 67.5328 51.5361 67.5826V68.4887H62.9999L65.1374 57.3959L62.9999 57.3859Z" fill="#2C2C2C"/>
<path d="M101.959 39.9999C101.569 41.0156 100.767 41.8672 99.7085 42.3897C99.056 42.7283 97.9985 43.0369 94.9048 43.1266V43.8136C96.6879 43.7725 98.4558 44.1142 100.057 44.8094C101.306 45.4865 102.037 46.8009 102.307 48.663H103.984V38.2174H102.375C102.313 38.8237 102.174 39.4217 101.959 39.9999Z" fill="#2C2C2C"/>
<path d="M109.125 18.561H99V19.3178C101.79 19.3178 103.793 19.9252 105.12 21.1002C105.953 21.8371 106.605 23.1814 107.246 25.4617L108 28.2299H110.25L109.125 18.561Z" fill="#2C2C2C"/>
<path d="M84.4762 63.8385C84.2168 62.7588 84.0998 61.656 84.1275 60.5524V18.561H72V19.2979C73.5361 19.3073 75.0462 19.6491 76.3988 20.2937C77.202 20.7767 77.844 21.4419 78.2576 22.2196C78.6712 22.9973 78.8413 23.8591 78.75 24.7149V62.3249C78.7635 63.0579 78.6805 63.7897 78.5025 64.5056C78.1853 65.4756 77.4715 66.3063 76.5 66.8357C75.87 67.234 74.835 67.6323 72 67.7518V68.4787H92.4075V67.6423C89.2688 67.4531 88.0763 67.1145 87.3787 66.776C86.6851 66.4995 86.0668 66.094 85.5659 65.5871C85.0651 65.0802 84.6934 64.4838 84.4762 63.8385Z" fill="#2C2C2C"/>
<path d="M133.875 87H0V0H133.875V87ZM2.4075 84.8691H131.467V2.16081H2.4075V84.8691Z" fill="#2C2C2C"/>
</svg>
