<svg width="46" height="40" viewBox="0 0 46 40" fill="none" xmlns="http://www.w3.org/2000/svg">
<path d="M21.0905 26.181C22.8369 26.181 24.4676 25.6128 25.7933 24.666L30.7801 29.6528C31.0116 29.8843 31.3167 30 31.6323 30C32.3161 30 32.8106 29.474 32.8106 28.8006C32.8106 28.485 32.7054 28.1904 32.474 27.959L27.5187 22.9932C28.5602 21.6255 29.181 19.9316 29.181 18.0905C29.181 13.6402 25.5408 10 21.0905 10C16.6297 10 13 13.6402 13 18.0905C13 22.5408 16.6297 26.181 21.0905 26.181ZM21.0905 24.4345C17.6081 24.4345 14.7464 21.5623 14.7464 18.0905C14.7464 14.6186 17.6081 11.7464 21.0905 11.7464C24.5623 11.7464 27.4345 14.6186 27.4345 18.0905C27.4345 21.5623 24.5623 24.4345 21.0905 24.4345Z" fill="white"/>
</svg>
