<svg width="17" height="21" viewBox="0 0 17 21" fill="none" xmlns="http://www.w3.org/2000/svg">
<path d="M16.3333 5.21265C16.3333 5.03143 16.4826 4.88441 16.6667 4.88441C16.8507 4.88441 17 5.03143 17 5.21265V5.28104C17 5.46226 16.8507 5.60928 16.6667 5.60928C16.4826 5.60928 16.3333 5.46226 16.3333 5.28104V5.21265ZM14.8012 19.0245V19.0314C14.8012 19.5733 14.5764 20.0657 14.2144 20.4221C13.8524 20.7786 13.3524 21 12.8021 21H1.99847C1.44899 21 0.949862 20.7786 0.587883 20.4221C0.225033 20.064 0.000219838 19.5725 0.000219838 19.0314V13.7282C0.000219838 13.547 0.149524 13.3999 0.333551 13.3999C0.517578 13.3999 0.666882 13.547 0.666882 13.7282V19.0314C0.666882 19.3921 0.817056 19.7203 1.05751 19.958C1.29882 20.1947 1.63215 20.3426 1.99847 20.3426H12.8021C13.1684 20.3426 13.5017 20.1948 13.7431 19.9571C13.9844 19.7195 14.1346 19.3912 14.1346 19.0305V19.0237H4.19703C3.64842 19.0237 3.14842 18.8014 2.78557 18.445C2.42272 18.0902 2.19791 17.597 2.19791 17.055V2.63282H1.99826C1.63889 2.63282 1.31164 2.77472 1.07292 3.0021L1.05816 3.01748C0.816846 3.25512 0.666662 3.58336 0.666662 3.94409V11.6708C0.666662 11.852 0.517358 11.9991 0.333331 11.9991C0.149305 11.9991 0 11.852 0 11.6708V3.94409C0 3.40213 0.225702 2.90976 0.586811 2.55331L0.606776 2.5345C0.967014 2.18915 1.4592 1.97546 1.99827 1.97546H2.19791V1.96862C2.19791 1.42667 2.42362 0.934302 2.78472 0.577845L2.80469 0.55904C3.16493 0.213688 3.65711 0 4.19618 0H14.9998C15.5484 0 16.0484 0.222259 16.4104 0.578698C16.7732 0.933441 16.9981 1.42667 16.9981 1.96862V4.21674C16.9981 4.39796 16.8488 4.54499 16.6647 4.54499C16.4807 4.54499 16.3314 4.39796 16.3314 4.21674V1.96862C16.3314 1.6079 16.1804 1.27965 15.9399 1.04202C15.6995 0.803529 15.367 0.656492 14.9998 0.656492H4.19616C3.83679 0.656492 3.50954 0.79839 3.27082 1.02577L3.25606 1.04116C3.01475 1.27879 2.86456 1.60703 2.86456 1.96776V17.0536C2.86456 17.4143 3.0156 17.7426 3.25606 17.9802C3.4965 18.2187 3.82983 18.3657 4.19702 18.3657H15.0006C15.36 18.3657 15.6864 18.2238 15.926 17.9964L15.9408 17.9811C16.1821 17.7434 16.3323 17.4152 16.3323 17.0545V6.27357C16.3323 6.09235 16.4816 5.94532 16.6656 5.94532C16.8496 5.94532 16.9989 6.09235 16.9989 6.27357V17.0545C16.9989 17.5964 16.7732 18.0888 16.4121 18.4452L16.3921 18.464C16.0319 18.8094 15.5397 19.0231 15.0006 19.0231H14.801L14.8012 19.0245ZM0.666882 12.735C0.666882 12.9162 0.517578 13.0632 0.333551 13.0632C0.149524 13.0632 0.000219838 12.9162 0.000219838 12.735V12.6666C0.000219838 12.4854 0.149524 12.3383 0.333551 12.3383C0.517578 12.3383 0.666882 12.4854 0.666882 12.6666V12.735ZM5.39778 7.06414C5.21375 7.06414 5.06445 6.91712 5.06445 6.7359C5.06445 6.55468 5.21375 6.40765 5.39778 6.40765H13.8012C13.9853 6.40765 14.1346 6.55468 14.1346 6.7359C14.1346 6.91712 13.9853 7.06414 13.8012 7.06414H5.39778ZM5.39778 4.287C5.21375 4.287 5.06445 4.13997 5.06445 3.95875C5.06445 3.77753 5.21375 3.63051 5.39778 3.63051H9.63738C9.82141 3.63051 9.97071 3.77753 9.97071 3.95875C9.97071 4.13997 9.82141 4.287 9.63738 4.287H5.39778ZM5.39778 15.3961C5.21375 15.3961 5.06445 15.2491 5.06445 15.0679C5.06445 14.8867 5.21375 14.7396 5.39778 14.7396H13.8012C13.9853 14.7396 14.1346 14.8867 14.1346 15.0679C14.1346 15.2491 13.9853 15.3961 13.8012 15.3961H5.39778ZM5.39778 12.619C5.21375 12.619 5.06445 12.472 5.06445 12.2907C5.06445 12.1095 5.21375 11.9625 5.39778 11.9625H13.8012C13.9853 11.9625 14.1346 12.1095 14.1346 12.2907C14.1346 12.472 13.9853 12.619 13.8012 12.619H5.39778ZM5.39778 9.84184C5.21375 9.84184 5.06445 9.69481 5.06445 9.51359C5.06445 9.33237 5.21375 9.18534 5.39778 9.18534H13.8012C13.9853 9.18534 14.1346 9.33237 14.1346 9.51359C14.1346 9.69481 13.9853 9.84184 13.8012 9.84184H5.39778Z" fill="#1741BE"/>
</svg>
