<svg width="18" height="17" viewBox="0 0 18 17" fill="none" xmlns="http://www.w3.org/2000/svg">
<path d="M2.6001 0.171387C1.50029 0.171387 0.600098 1.07158 0.600098 2.17139V14.9714C0.600098 16.0712 1.50029 16.9714 2.6001 16.9714H9.33291C9.37611 16.9785 9.42018 16.9785 9.46338 16.9714H11.7329C11.7761 16.9785 11.8202 16.9785 11.8634 16.9714H15.4001C16.4999 16.9714 17.4001 16.0712 17.4001 14.9714V2.17139C17.4001 1.07158 16.4999 0.171387 15.4001 0.171387H2.6001ZM2.6001 0.971387H15.4001C16.0675 0.971387 16.6001 1.50399 16.6001 2.17139V14.9714C16.6001 15.6388 16.0675 16.1714 15.4001 16.1714H12.2001V10.5714H13.7282L14.2884 7.77139H12.2001V6.97139C12.2001 6.74839 12.2213 6.73096 12.2962 6.68232C12.3711 6.63369 12.6024 6.57139 13.0001 6.57139H14.2001V4.31904L13.972 4.21045C13.972 4.21045 13.0532 3.77139 11.8001 3.77139C10.9001 3.77139 10.1607 4.12997 9.6876 4.72139C9.21446 5.31281 9.0001 6.10472 9.0001 6.97139V7.77139H7.8001V10.5714H9.0001V16.1714H2.6001C1.9327 16.1714 1.4001 15.6388 1.4001 14.9714V2.17139C1.4001 1.50399 1.9327 0.971387 2.6001 0.971387ZM11.8001 4.57139C12.6317 4.57139 13.155 4.75477 13.4001 4.85186V5.77139H13.0001C12.5398 5.77139 12.1709 5.80947 11.8603 6.01123C11.5496 6.213 11.4001 6.59598 11.4001 6.97139V8.57139H13.3118L13.072 9.77139H11.4001V16.1714H9.8001V9.77139H8.6001V8.57139H9.8001V6.97139C9.8001 6.23805 9.98573 5.62997 10.3126 5.22139C10.6395 4.81281 11.1001 4.57139 11.8001 4.57139Z" fill="#121C30"/>
</svg>
