<svg width="18" height="19" viewBox="0 0 18 19" fill="none" xmlns="http://www.w3.org/2000/svg">
<path d="M5.4002 0.77124C2.53319 0.77124 0.200195 3.10423 0.200195 5.97124V13.1712C0.200195 16.0382 2.53319 18.3712 5.4002 18.3712H12.6002C15.4672 18.3712 17.8002 16.0382 17.8002 13.1712V5.97124C17.8002 3.10423 15.4672 0.77124 12.6002 0.77124H5.4002ZM5.4002 1.57124H12.6002C15.0348 1.57124 17.0002 3.53665 17.0002 5.97124V13.1712C17.0002 15.6058 15.0348 17.5712 12.6002 17.5712H5.4002C2.9656 17.5712 1.0002 15.6058 1.0002 13.1712V5.97124C1.0002 3.53665 2.9656 1.57124 5.4002 1.57124ZM13.8002 3.97124C13.588 3.97124 13.3845 4.05553 13.2345 4.20555C13.0845 4.35558 13.0002 4.55907 13.0002 4.77124C13.0002 4.98341 13.0845 5.1869 13.2345 5.33693C13.3845 5.48695 13.588 5.57124 13.8002 5.57124C14.0124 5.57124 14.2159 5.48695 14.3659 5.33693C14.5159 5.1869 14.6002 4.98341 14.6002 4.77124C14.6002 4.55907 14.5159 4.35558 14.3659 4.20555C14.2159 4.05553 14.0124 3.97124 13.8002 3.97124ZM9.0002 5.17124C6.57488 5.17124 4.6002 7.14593 4.6002 9.57124C4.6002 11.9966 6.57488 13.9712 9.0002 13.9712C11.4255 13.9712 13.4002 11.9966 13.4002 9.57124C13.4002 7.14593 11.4255 5.17124 9.0002 5.17124ZM9.0002 5.97124C10.9932 5.97124 12.6002 7.57828 12.6002 9.57124C12.6002 11.5642 10.9932 13.1712 9.0002 13.1712C7.00723 13.1712 5.4002 11.5642 5.4002 9.57124C5.4002 7.57828 7.00723 5.97124 9.0002 5.97124Z" fill="#121C30"/>
</svg>
